<?xml version="1.0" encoding="UTF-8" standalone="no"?>
<!DOCTYPE svg PUBLIC "-//W3C//DTD SVG 1.1//EN" "http://www.w3.org/Graphics/SVG/1.1/DTD/svg11.dtd">
<!-- Generated by Microsoft Visio, SVG Export ant_acs_overview.svg Page-1 -->
<svg xmlns="http://www.w3.org/2000/svg" xmlns:xlink="http://www.w3.org/1999/xlink" xmlns:ev="http://www.w3.org/2001/xml-events"
		xmlns:v="http://schemas.microsoft.com/visio/2003/SVGExtensions/" width="7.90803in" height="2.51679in"
		viewBox="0 0 569.378 181.209" xml:space="preserve" color-interpolation-filters="sRGB" class="st15">
	<v:documentProperties v:langID="1044" v:viewMarkup="false"/>

	<style type="text/css">
	<![CDATA[
		.st1 {fill:#5b9bd5;stroke:#000000;stroke-width:0.25}
		.st2 {fill:#feffff;font-family:Calibri;font-size:0.833336em}
		.st3 {font-size:1em}
		.st4 {fill:#000000;stroke:#000000;stroke-width:0.25}
		.st5 {fill:#ffffff;stroke:#000000;stroke-width:0.25}
		.st6 {fill:#ffc000;stroke:#000000;stroke-width:0.25}
		.st7 {fill:#a5a5a5;stroke:#000000;stroke-width:0.25}
		.st8 {marker-end:url(#mrkr4-27);marker-start:url(#mrkr1-25);stroke:#000000;stroke-linecap:round;stroke-linejoin:round;stroke-width:1}
		.st9 {fill:#000000;fill-opacity:1;stroke:#000000;stroke-opacity:1;stroke-width:0.28409090909091}
		.st10 {fill:none;stroke:none;stroke-width:0.25}
		.st11 {fill:#000000;font-family:Calibri;font-size:0.833336em}
		.st12 {fill:none;stroke:#000000;stroke-width:0.25}
		.st13 {fill:#000000;font-family:Calibri;font-size:0.666664em}
		.st14 {fill:#1e4e79;stroke:#000000;stroke-width:0.25}
		.st15 {fill:none;fill-rule:evenodd;font-size:12px;overflow:visible;stroke-linecap:square;stroke-miterlimit:3}
	]]>
	</style>

	<defs id="Markers">
		<g id="lend1">
			<path d="M 1 -1 L 0 0 L 1 1 " style="stroke-linecap:round;stroke-linejoin:round;fill:none"/>
		</g>
		<marker id="mrkr1-25" class="st9" v:arrowType="1" v:arrowSize="2" orient="auto" markerUnits="strokeWidth"
				overflow="visible">
			<use xlink:href="#lend1" transform="scale(3.52) "/>
		</marker>
		<g id="lend4">
			<path d="M 2 1 L 0 0 L 2 -1 L 2 1 " style="stroke:none"/>
		</g>
		<marker id="mrkr4-27" class="st9" v:arrowType="4" v:arrowSize="2" v:setback="7.04" refX="-7.04" orient="auto"
				markerUnits="strokeWidth" overflow="visible">
			<use xlink:href="#lend4" transform="scale(-3.52,-3.52) "/>
		</marker>
	</defs>
	<g v:mID="0" v:index="1" v:groupContext="foregroundPage">
		<title>Page-1</title>
		<v:pageProperties v:drawingScale="0.0393701" v:pageScale="0.0393701" v:drawingUnits="24" v:shadowOffsetX="8.50392"
				v:shadowOffsetY="-8.50392"/>
		<v:layer v:name="Connector" v:index="0"/>
		<g id="shape98-1" v:mID="98" v:groupContext="shape" transform="translate(224.718,-60.4862)">
			<title>Rectangle.98</title>
			<desc>Hub 2</desc>
			<v:userDefs>
				<v:ud v:nameU="visVersion" v:val="VT0(15):26"/>
			</v:userDefs>
			<v:textBlock v:margins="rect(4,4,4,4)" v:tabSpace="42.5197"/>
			<v:textRect cx="28.3465" cy="152.862" width="56.7" height="56.6929"/>
			<rect x="0" y="124.516" width="56.6929" height="56.6929" class="st1"/>
			<text x="16.31" y="155.86" class="st2" v:langID="4105"><v:paragraph v:horizAlign="1"/><v:tabList/>Hub 2</text>		</g>
		<g id="shape99-4" v:mID="99" v:groupContext="shape" transform="translate(289.348,-101.589)">
			<title>Rectangle.99</title>
			<desc>Peripheral 1</desc>
			<v:userDefs>
				<v:ud v:nameU="visVersion" v:val="VT0(15):26"/>
			</v:userDefs>
			<v:textBlock v:margins="rect(4,4,4,4)" v:tabSpace="42.5197"/>
			<v:textRect cx="28.3465" cy="152.862" width="56.7" height="56.6929"/>
			<rect x="0" y="124.516" width="56.6929" height="56.6929" class="st1"/>
			<text x="7.36" y="149.86" class="st2" v:langID="4105"><v:paragraph v:horizAlign="1"/><v:tabList/>Peripheral <tspan
						x="25.81" dy="1.2em" class="st3">1</tspan></text>		</g>
		<g id="shape100-8" v:mID="100" v:groupContext="shape" transform="translate(152.435,-60.4862)">
			<title>Rectangle.100</title>
			<desc>Hub 1</desc>
			<v:userDefs>
				<v:ud v:nameU="visVersion" v:val="VT0(15):26"/>
			</v:userDefs>
			<v:textBlock v:margins="rect(4,4,4,4)" v:tabSpace="42.5197"/>
			<v:textRect cx="28.3465" cy="152.862" width="56.7" height="56.6929"/>
			<rect x="0" y="124.516" width="56.6929" height="56.6929" class="st1"/>
			<text x="16.31" y="155.86" class="st2" v:langID="4105"><v:paragraph v:horizAlign="1"/><v:tabList/>Hub 1</text>		</g>
		<g id="shape101-11" v:mID="101" v:groupContext="shape" transform="translate(200.624,-80.3287)">
			<title>Sheet.101</title>
			<path d="M8.5 164.2 A8.50394 8.50394 -180 0 0 0 172.7 A8.50394 8.50394 -180 0 0 8.5 181.21 L8.5 164.2 Z" class="st4"/>
		</g>
		<g id="shape102-13" v:mID="102" v:groupContext="shape" transform="translate(233.222,265.081) rotate(180)">
			<title>Sheet.102</title>
			<path d="M8.5 164.2 A8.50394 8.50394 -180 0 0 0 172.7 A8.50394 8.50394 -180 0 0 8.5 181.21 L8.5 164.2 Z" class="st5"/>
		</g>
		<g id="shape103-15" v:mID="103" v:groupContext="shape" transform="translate(272.907,-80.3287)">
			<title>Sheet.103</title>
			<path d="M8.5 164.2 A8.50394 8.50394 -180 0 0 0 172.7 A8.50394 8.50394 -180 0 0 8.5 181.21 L8.5 164.2 Z" class="st6"/>
		</g>
		<g id="shape104-17" v:mID="104" v:groupContext="shape" transform="translate(491.817,71.1161) rotate(90)">
			<title>Sheet.104</title>
			<path d="M8.5 164.2 A8.50394 8.50394 -180 0 0 0 172.7 A8.50394 8.50394 -180 0 0 8.5 181.21 L8.5 164.2 Z" class="st7"/>
		</g>
		<g id="shape105-19" v:mID="105" v:groupContext="shape" v:layerMember="0" transform="translate(281.411,-88.8327)">
			<title>Directed line 1.105</title>
			<v:userDefs>
				<v:ud v:nameU="visVersion" v:val="VT0(15):26"/>
			</v:userDefs>
			<path d="M0 181.21 L137.53 181.21" class="st8"/>
		</g>
		<g id="shape106-28" v:mID="106" v:groupContext="shape" transform="translate(445.821,-146.943)">
			<title>Sheet.106</title>
			<path d="M8.5 164.2 A8.50394 8.50394 -180 0 0 0 172.7 A8.50394 8.50394 -180 0 0 8.5 181.21 L8.5 164.2 Z" class="st4"/>
		</g>
		<g id="shape107-30" v:mID="107" v:groupContext="shape" transform="translate(445.821,-127.1)">
			<title>Sheet.107</title>
			<path d="M8.5 164.2 A8.50394 8.50394 -180 0 0 0 172.7 A8.50394 8.50394 -180 0 0 8.5 181.21 L8.5 164.2 Z" class="st5"/>
		</g>
		<g id="shape108-32" v:mID="108" v:groupContext="shape" transform="translate(455.742,-149.778)">
			<title>Sheet.108</title>
			<desc>Master Endpoint</desc>
			<v:textBlock v:margins="rect(4,4,4,4)" v:tabSpace="42.5197"/>
			<v:textRect cx="46.063" cy="174.122" width="92.13" height="14.1732"/>
			<rect x="0" y="167.035" width="92.126" height="14.1732" class="st10"/>
			<text x="4" y="177.12" class="st11" v:langID="4105"><v:paragraph/><v:tabList/>Master Endpoint</text>		</g>
		<g id="shape109-35" v:mID="109" v:groupContext="shape" transform="translate(455.742,-129.935)">
			<title>Sheet.109</title>
			<desc>Slave Endpoint</desc>
			<v:textBlock v:margins="rect(4,4,4,4)" v:tabSpace="42.5197"/>
			<v:textRect cx="46.063" cy="174.122" width="92.13" height="14.1732"/>
			<rect x="0" y="167.035" width="92.126" height="14.1732" class="st10"/>
			<text x="4" y="177.12" class="st11" v:langID="4105"><v:paragraph/><v:tabList/>Slave Endpoint</text>		</g>
		<g id="shape110-38" v:mID="110" v:groupContext="shape" v:layerMember="0" transform="translate(209.128,-88.8327)">
			<title>Directed line 1.110</title>
			<v:userDefs>
				<v:ud v:nameU="visVersion" v:val="VT0(15):26"/>
			</v:userDefs>
			<path d="M0 181.21 L8.55 181.21" class="st8"/>
		</g>
		<g id="shape111-45" v:mID="111" v:groupContext="shape" v:layerMember="0"
				transform="translate(422.536,227.421) rotate(144.65)">
			<title>Directed line 1.111</title>
			<v:userDefs>
				<v:ud v:nameU="visVersion" v:val="VT0(15):26"/>
			</v:userDefs>
			<path d="M0 181.21 L15.35 181.21" class="st8"/>
		</g>
		<g id="shape112-52" v:mID="112" v:groupContext="shape" transform="translate(301.254,-19.3839)">
			<title>Rectangle.64</title>
			<desc>Peripheral 3</desc>
			<v:userDefs>
				<v:ud v:nameU="visVersion" v:val="VT0(15):26"/>
			</v:userDefs>
			<v:textBlock v:margins="rect(4,4,4,4)" v:tabSpace="42.5197"/>
			<v:textRect cx="28.3465" cy="152.862" width="56.7" height="56.6929"/>
			<rect x="0" y="124.516" width="56.6929" height="56.6929" class="st1"/>
			<text x="7.36" y="149.86" class="st2" v:langID="4105"><v:paragraph v:horizAlign="1"/><v:tabList/>Peripheral <tspan
						x="25.81" dy="1.2em" class="st3">3</tspan></text>		</g>
		<g id="shape113-56" v:mID="113" v:groupContext="shape" transform="translate(156.896,113.636) rotate(-90)">
			<title>Sheet.113</title>
			<path d="M8.5 164.2 A8.50394 8.50394 -180 0 0 0 172.7 A8.50394 8.50394 -180 0 0 8.5 181.21 L8.5 164.2 Z" class="st7"/>
		</g>
		<g id="shape114-58" v:mID="114" v:groupContext="shape" v:layerMember="0"
				transform="translate(225.003,253.105) rotate(-144.745)">
			<title>Directed line 1.67</title>
			<v:userDefs>
				<v:ud v:nameU="visVersion" v:val="VT0(15):26"/>
			</v:userDefs>
			<path d="M0 181.21 L14.71 181.21" class="st8"/>
		</g>
		<g id="shape115-65" v:mID="115" v:groupContext="shape" transform="translate(354.545,-101.589)">
			<title>Rectangle.68</title>
			<desc>Peripheral 2</desc>
			<v:userDefs>
				<v:ud v:nameU="visVersion" v:val="VT0(15):26"/>
			</v:userDefs>
			<v:textBlock v:margins="rect(4,4,4,4)" v:tabSpace="42.5197"/>
			<v:textRect cx="28.3465" cy="152.862" width="56.7" height="56.6929"/>
			<rect x="0" y="124.516" width="56.6929" height="56.6929" class="st1"/>
			<text x="7.36" y="149.86" class="st2" v:langID="4105"><v:paragraph v:horizAlign="1"/><v:tabList/>Peripheral <tspan
						x="25.81" dy="1.2em" class="st3">2</tspan></text>		</g>
		<g id="shape116-69" v:mID="116" v:groupContext="shape" transform="translate(555.596,71.2021) rotate(90)">
			<title>Sheet.116</title>
			<path d="M8.5 164.2 A8.50394 8.50394 -180 0 0 0 172.7 A8.50394 8.50394 -180 0 0 8.5 181.21 L8.5 164.2 Z" class="st7"/>
		</g>
		<g id="shape117-71" v:mID="117" v:groupContext="shape" v:layerMember="0"
				transform="translate(488.194,227.092) rotate(144.471)">
			<title>Directed line 1.70</title>
			<v:userDefs>
				<v:ud v:nameU="visVersion" v:val="VT0(15):26"/>
			</v:userDefs>
			<path d="M0 181.21 L15.4 181.21" class="st8"/>
		</g>
		<g id="shape118-78" v:mID="118" v:groupContext="shape" transform="translate(369.852,-18.7759)">
			<title>Rectangle.71</title>
			<desc>Peripheral 4</desc>
			<v:userDefs>
				<v:ud v:nameU="visVersion" v:val="VT0(15):26"/>
			</v:userDefs>
			<v:textBlock v:margins="rect(4,4,4,4)" v:tabSpace="42.5197"/>
			<v:textRect cx="28.3465" cy="152.862" width="56.7" height="56.6929"/>
			<rect x="0" y="124.516" width="56.6929" height="56.6929" class="st1"/>
			<text x="7.36" y="149.86" class="st2" v:langID="4105"><v:paragraph v:horizAlign="1"/><v:tabList/>Peripheral <tspan
						x="25.81" dy="1.2em" class="st3">4</tspan></text>		</g>
		<g id="shape119-82" v:mID="119" v:groupContext="shape" transform="translate(225.494,114.244) rotate(-90)">
			<title>Sheet.119</title>
			<path d="M8.5 164.2 A8.50394 8.50394 -180 0 0 0 172.7 A8.50394 8.50394 -180 0 0 8.5 181.21 L8.5 164.2 Z" class="st7"/>
		</g>
		<g id="shape120-84" v:mID="120" v:groupContext="shape" v:layerMember="0"
				transform="translate(293.602,253.713) rotate(-144.745)">
			<title>Directed line 1.73</title>
			<v:userDefs>
				<v:ud v:nameU="visVersion" v:val="VT0(15):26"/>
			</v:userDefs>
			<path d="M0 181.21 L14.71 181.21" class="st8"/>
		</g>
		<g id="shape121-91" v:mID="121" v:groupContext="shape" transform="translate(24.8759,-101.589)">
			<title>Rectangle.74</title>
			<desc>Peripheral 2</desc>
			<v:userDefs>
				<v:ud v:nameU="visVersion" v:val="VT0(15):26"/>
			</v:userDefs>
			<v:textBlock v:margins="rect(4,4,4,4)" v:tabSpace="42.5197"/>
			<v:textRect cx="28.3465" cy="152.862" width="56.7" height="56.6929"/>
			<rect x="0" y="124.516" width="56.6929" height="56.6929" class="st1"/>
			<text x="7.36" y="149.86" class="st2" v:langID="4105"><v:paragraph v:horizAlign="1"/><v:tabList/>Peripheral <tspan
						x="25.81" dy="1.2em" class="st3">2</tspan></text>		</g>
		<g id="shape122-95" v:mID="122" v:groupContext="shape" transform="translate(225.927,71.1161) rotate(90)">
			<title>Sheet.122</title>
			<path d="M8.5 164.2 A8.50394 8.50394 -180 0 0 0 172.7 A8.50394 8.50394 -180 0 0 8.5 181.21 L8.5 164.2 Z" class="st7"/>
		</g>
		<g id="shape123-97" v:mID="123" v:groupContext="shape" v:layerMember="0"
				transform="translate(153.582,273.581) rotate(179.637)">
			<title>Directed line 1.76</title>
			<v:userDefs>
				<v:ud v:nameU="visVersion" v:val="VT0(15):26"/>
			</v:userDefs>
			<path d="M0 181.21 L137.53 181.21" class="st8"/>
		</g>
		<g id="shape124-104" v:mID="124" v:groupContext="shape" transform="translate(3.47893,-19.3839)">
			<title>Rectangle.78</title>
			<desc>Peripheral 4</desc>
			<v:userDefs>
				<v:ud v:nameU="visVersion" v:val="VT0(15):26"/>
			</v:userDefs>
			<v:textBlock v:margins="rect(4,4,4,4)" v:tabSpace="42.5197"/>
			<v:textRect cx="28.3465" cy="152.862" width="56.7" height="56.6929"/>
			<rect x="0" y="124.516" width="56.6929" height="56.6929" class="st1"/>
			<text x="7.36" y="149.86" class="st2" v:langID="4105"><v:paragraph v:horizAlign="1"/><v:tabList/>Peripheral <tspan
						x="25.81" dy="1.2em" class="st3">4</tspan></text>		</g>
		<g id="shape125-108" v:mID="125" v:groupContext="shape" transform="translate(-140.879,113.636) rotate(-90)">
			<title>Sheet.125</title>
			<path d="M8.5 164.2 A8.50394 8.50394 -180 0 0 0 172.7 A8.50394 8.50394 -180 0 0 8.5 181.21 L8.5 164.2 Z" class="st7"/>
		</g>
		<g id="shape126-110" v:mID="126" v:groupContext="shape" transform="translate(88.6555,-101.589)">
			<title>Rectangle.81</title>
			<desc>Peripheral 1</desc>
			<v:userDefs>
				<v:ud v:nameU="visVersion" v:val="VT0(15):26"/>
			</v:userDefs>
			<v:textBlock v:margins="rect(4,4,4,4)" v:tabSpace="42.5197"/>
			<v:textRect cx="28.3465" cy="152.862" width="56.7" height="56.6929"/>
			<rect x="0" y="124.516" width="56.6929" height="56.6929" class="st1"/>
			<text x="7.36" y="149.86" class="st2" v:langID="4105"><v:paragraph v:horizAlign="1"/><v:tabList/>Peripheral <tspan
						x="25.81" dy="1.2em" class="st3">1</tspan></text>		</g>
		<g id="shape127-114" v:mID="127" v:groupContext="shape" transform="translate(289.707,71.1161) rotate(90)">
			<title>Sheet.127</title>
			<path d="M8.5 164.2 A8.50394 8.50394 -180 0 0 0 172.7 A8.50394 8.50394 -180 0 0 8.5 181.21 L8.5 164.2 Z" class="st7"/>
		</g>
		<g id="shape128-116" v:mID="128" v:groupContext="shape" transform="translate(70.2303,-19.3839)">
			<title>Rectangle.84</title>
			<desc>Peripheral 3</desc>
			<v:userDefs>
				<v:ud v:nameU="visVersion" v:val="VT0(15):26"/>
			</v:userDefs>
			<v:textBlock v:margins="rect(4,4,4,4)" v:tabSpace="42.5197"/>
			<v:textRect cx="28.3465" cy="152.862" width="56.7" height="56.6929"/>
			<rect x="0" y="124.516" width="56.6929" height="56.6929" class="st1"/>
			<text x="7.36" y="149.86" class="st2" v:langID="4105"><v:paragraph v:horizAlign="1"/><v:tabList/>Peripheral <tspan
						x="25.81" dy="1.2em" class="st3">3</tspan></text>		</g>
		<g id="shape129-120" v:mID="129" v:groupContext="shape" transform="translate(-74.128,113.636) rotate(-90)">
			<title>Sheet.129</title>
			<path d="M8.5 164.2 A8.50394 8.50394 -180 0 0 0 172.7 A8.50394 8.50394 -180 0 0 8.5 181.21 L8.5 164.2 Z" class="st7"/>
		</g>
		<g id="shape130-122" v:mID="130" v:groupContext="shape" v:layerMember="0"
				transform="translate(12.7455,227.391) rotate(35.3496) scale(1,-1)">
			<title>Directed line 1.87</title>
			<v:userDefs>
				<v:ud v:nameU="visVersion" v:val="VT0(15):26"/>
			</v:userDefs>
			<path d="M0 181.21 L15.35 181.21" class="st8"/>
		</g>
		<g id="shape131-129" v:mID="131" v:groupContext="shape" v:layerMember="0"
				transform="translate(-69.7995,212.67) rotate(42.7575) scale(1,-1)">
			<title>Directed line 1.88</title>
			<v:userDefs>
				<v:ud v:nameU="visVersion" v:val="VT0(15):26"/>
			</v:userDefs>
			<path d="M0 181.21 L12.04 181.21" class="st8"/>
		</g>
		<g id="shape132-136" v:mID="132" v:groupContext="shape" v:layerMember="0"
				transform="translate(-4.74363,-43.7354) rotate(-34.7623)">
			<title>Directed line 1.89</title>
			<v:userDefs>
				<v:ud v:nameU="visVersion" v:val="VT0(15):26"/>
			</v:userDefs>
			<path d="M0 181.21 L14.93 181.21" class="st8"/>
		</g>
		<g id="shape133-143" v:mID="133" v:groupContext="shape" v:layerMember="0"
				transform="translate(-68.8067,-45.5657) rotate(-33.734)">
			<title>Directed line 1.90</title>
			<v:userDefs>
				<v:ud v:nameU="visVersion" v:val="VT0(15):26"/>
			</v:userDefs>
			<path d="M0 181.21 L14.76 181.21" class="st8"/>
		</g>
		<g id="shape134-150" v:mID="134" v:groupContext="shape" transform="translate(160.939,265.081) rotate(180)">
			<title>Sheet.134</title>
			<path d="M8.5 164.2 A8.50394 8.50394 -180 0 0 0 172.7 A8.50394 8.50394 -180 0 0 8.5 181.21 L8.5 164.2 Z" class="st6"/>
		</g>
		<g id="shape135-152" v:mID="135" v:groupContext="shape" transform="translate(445.821,-105.841)">
			<title>Sheet.135</title>
			<path d="M8.5 164.2 A8.50394 8.50394 -180 0 0 0 172.7 A8.50394 8.50394 -180 0 0 8.5 181.21 L8.5 164.2 Z" class="st7"/>
		</g>
		<g id="shape136-154" v:mID="136" v:groupContext="shape" transform="translate(455.742,-108.675)">
			<title>Sheet.136</title>
			<desc>Shared Slave Endpoint</desc>
			<v:textBlock v:margins="rect(4,4,4,4)" v:tabSpace="42.5197"/>
			<v:textRect cx="55.9843" cy="174.122" width="111.97" height="14.1732"/>
			<rect x="0" y="167.035" width="111.969" height="14.1732" class="st10"/>
			<text x="4" y="177.12" class="st11" v:langID="4105"><v:paragraph/><v:tabList/>Shared Slave Endpoint</text>		</g>
		<g id="shape137-157" v:mID="137" v:groupContext="shape" transform="translate(445.821,-84.5807)">
			<title>Sheet.137</title>
			<path d="M8.5 164.2 A8.50394 8.50394 -180 0 0 0 172.7 A8.50394 8.50394 -180 0 0 8.5 181.21 L8.5 164.2 Z" class="st6"/>
		</g>
		<g id="shape138-159" v:mID="138" v:groupContext="shape" transform="translate(455.742,-87.4154)">
			<title>Sheet.138</title>
			<desc>Shared Master Endpoint</desc>
			<v:textBlock v:margins="rect(4,4,4,4)" v:tabSpace="42.5197"/>
			<v:textRect cx="55.9843" cy="174.122" width="111.97" height="14.1732"/>
			<rect x="0" y="167.035" width="111.969" height="14.1732" class="st10"/>
			<text x="4" y="177.12" class="st11" v:langID="4105"><v:paragraph/><v:tabList/>Shared Master Endpoint</text>		</g>
		<g id="shape139-162" v:mID="139" v:groupContext="shape" transform="translate(8.07672,72.5335) rotate(-90)">
			<title>Sheet.139</title>
			<path d="M8.5 164.2 A8.50394 8.50394 -180 0 0 0 172.7 A8.50394 8.50394 -180 0 0 8.5 181.21 L8.5 164.2 Z" class="st4"/>
		</g>
		<g id="shape140-164" v:mID="140" v:groupContext="shape" transform="translate(80.3602,72.5335) rotate(-90)">
			<title>Sheet.140</title>
			<path d="M8.5 164.2 A8.50394 8.50394 -180 0 0 0 172.7 A8.50394 8.50394 -180 0 0 8.5 181.21 L8.5 164.2 Z" class="st4"/>
		</g>
		<g id="shape141-166" v:mID="141" v:groupContext="shape" v:layerMember="0"
				transform="translate(-0.427212,64.0295) rotate(-90)">
			<title>Directed line 1.98</title>
			<v:userDefs>
				<v:ud v:nameU="visVersion" v:val="VT0(15):26"/>
			</v:userDefs>
			<path d="M0 181.21 L24.85 181.21" class="st8"/>
		</g>
		<g id="shape142-173" v:mID="142" v:groupContext="shape" transform="translate(159.522,-149.069)">
			<title>Rectangle</title>
			<desc>ANT Remote</desc>
			<v:userDefs>
				<v:ud v:nameU="visVersion" v:val="VT0(15):26"/>
			</v:userDefs>
			<v:textBlock v:margins="rect(4,4,4,4)" v:tabSpace="42.5197"/>
			<v:textRect cx="21.2598" cy="165.264" width="42.52" height="31.8898"/>
			<rect x="0" y="149.319" width="42.5197" height="31.8898" class="st12"/>
			<text x="12.7" y="162.26" class="st11" v:langID="4105"><v:paragraph v:horizAlign="1"/><v:tabList/>ANT<v:newlineChar/><tspan
						x="5.26" dy="1.2em" class="st3">Remote</tspan></text>		</g>
		<g id="shape143-177" v:mID="143" v:groupContext="shape" v:layerMember="0"
				transform="translate(71.8563,64.0295) rotate(-90)">
			<title>Directed line 1.100</title>
			<v:userDefs>
				<v:ud v:nameU="visVersion" v:val="VT0(15):26"/>
			</v:userDefs>
			<path d="M0 181.21 L24.85 181.21" class="st8"/>
		</g>
		<g id="shape144-184" v:mID="144" v:groupContext="shape" transform="translate(231.805,-149.069)">
			<title>Rectangle.101</title>
			<desc>ANT Remote</desc>
			<v:userDefs>
				<v:ud v:nameU="visVersion" v:val="VT0(15):26"/>
			</v:userDefs>
			<v:textBlock v:margins="rect(4,4,4,4)" v:tabSpace="42.5197"/>
			<v:textRect cx="21.2598" cy="165.264" width="42.52" height="31.8898"/>
			<rect x="0" y="149.319" width="42.5197" height="31.8898" class="st12"/>
			<text x="12.7" y="162.26" class="st11" v:langID="4105"><v:paragraph v:horizAlign="1"/><v:tabList/>ANT<v:newlineChar/><tspan
						x="5.26" dy="1.2em" class="st3">Remote</tspan></text>		</g>
		<g id="shape145-188" v:mID="145" v:groupContext="shape" transform="translate(180.781,-117.179)">
			<title>Sheet.145</title>
			<desc>1</desc>
			<v:textBlock v:margins="rect(4,4,4,4)" v:tabSpace="42.5197"/>
			<v:textRect cx="8.50394" cy="177.665" width="17.01" height="7.08662"/>
			<rect x="0" y="174.122" width="17.0079" height="7.08662" class="st10"/>
			<text x="6.48" y="180.07" class="st13" v:langID="4105"><v:paragraph v:horizAlign="1"/><v:tabList/>1</text>		</g>
		<g id="shape146-191" v:mID="146" v:groupContext="shape" transform="translate(180.781,-141.982)">
			<title>Sheet.146</title>
			<desc>N</desc>
			<v:textBlock v:margins="rect(4,4,4,4)" v:tabSpace="42.5197"/>
			<v:textRect cx="8.50394" cy="177.665" width="17.01" height="7.08662"/>
			<rect x="0" y="174.122" width="17.0079" height="7.08662" class="st10"/>
			<text x="5.92" y="180.07" class="st13" v:langID="4105"><v:paragraph v:horizAlign="1"/><v:tabList/>N</text>		</g>
		<g id="shape147-194" v:mID="147" v:groupContext="shape" transform="translate(251.648,-141.982)">
			<title>Sheet.147</title>
			<desc>N</desc>
			<v:textBlock v:margins="rect(4,4,4,4)" v:tabSpace="42.5197"/>
			<v:textRect cx="8.50394" cy="177.665" width="17.01" height="7.08662"/>
			<rect x="0" y="174.122" width="17.0079" height="7.08662" class="st10"/>
			<text x="5.92" y="180.07" class="st13" v:langID="4105"><v:paragraph v:horizAlign="1"/><v:tabList/>N</text>		</g>
		<g id="shape148-197" v:mID="148" v:groupContext="shape" transform="translate(251.648,-117.179)">
			<title>Sheet.148</title>
			<desc>1</desc>
			<v:textBlock v:margins="rect(4,4,4,4)" v:tabSpace="42.5197"/>
			<v:textRect cx="8.50394" cy="177.665" width="17.01" height="7.08662"/>
			<rect x="0" y="174.122" width="17.0079" height="7.08662" class="st10"/>
			<text x="6.48" y="180.07" class="st13" v:langID="4105"><v:paragraph v:horizAlign="1"/><v:tabList/>1</text>		</g>
		<g id="shape149-200" v:mID="149" v:groupContext="shape" v:layerMember="0" transform="translate(361.99,120.722) rotate(90)">
			<title>Directed line 1.106</title>
			<v:userDefs>
				<v:ud v:nameU="visVersion" v:val="VT0(15):26"/>
			</v:userDefs>
			<path d="M0 181.21 L21.31 181.21" class="st8"/>
		</g>
		<g id="shape150-207" v:mID="150" v:groupContext="shape" v:layerMember="0" transform="translate(434.274,120.722) rotate(90)">
			<title>Directed line 1.107</title>
			<v:userDefs>
				<v:ud v:nameU="visVersion" v:val="VT0(15):26"/>
			</v:userDefs>
			<path d="M0 181.21 L21.31 181.21" class="st8"/>
		</g>
		<g id="shape151-214" v:mID="151" v:groupContext="shape" transform="translate(353.486,112.219) rotate(90)">
			<title>Rectangle.108</title>
			<v:userDefs>
				<v:ud v:nameU="visVersion" v:val="VT0(15):26"/>
			</v:userDefs>
			<rect x="0" y="164.201" width="8.50394" height="17.0079" class="st14"/>
		</g>
		<g id="shape152-216" v:mID="152" v:groupContext="shape" transform="translate(425.77,112.219) rotate(90)">
			<title>Rectangle.109</title>
			<v:userDefs>
				<v:ud v:nameU="visVersion" v:val="VT0(15):26"/>
			</v:userDefs>
			<rect x="0" y="164.201" width="8.50394" height="17.0079" class="st14"/>
		</g>
		<g id="shape153-218" v:mID="153" v:groupContext="shape" transform="translate(445.821,-62.7129)">
			<title>Rectangle.110</title>
			<v:userDefs>
				<v:ud v:nameU="visVersion" v:val="VT0(15):26"/>
			</v:userDefs>
			<rect x="0" y="164.201" width="8.50394" height="17.0079" class="st14"/>
		</g>
		<g id="shape154-220" v:mID="154" v:groupContext="shape" transform="translate(457.159,-64.1302)">
			<title>Sheet.154</title>
			<desc>BLE slave endpoint</desc>
			<v:textBlock v:margins="rect(4,4,4,4)" v:tabSpace="42.5197"/>
			<v:textRect cx="55.9843" cy="174.122" width="111.97" height="14.1732"/>
			<rect x="0" y="167.035" width="111.969" height="14.1732" class="st10"/>
			<text x="4" y="177.12" class="st11" v:langID="4105"><v:paragraph/><v:tabList/>BLE slave endpoint</text>		</g>
		<g id="shape155-223" v:mID="155" v:groupContext="shape" transform="translate(159.522,-0.25)">
			<title>Rectangle.112</title>
			<desc>BLE Remote</desc>
			<v:userDefs>
				<v:ud v:nameU="visVersion" v:val="VT0(15):26"/>
			</v:userDefs>
			<v:textBlock v:margins="rect(4,4,4,4)" v:tabSpace="42.5197"/>
			<v:textRect cx="21.2598" cy="165.264" width="42.52" height="31.8898"/>
			<rect x="0" y="149.319" width="42.5197" height="31.8898" class="st12"/>
			<text x="14" y="162.26" class="st11" v:langID="4105"><v:paragraph v:horizAlign="1"/><v:tabList/>BLE<v:newlineChar/><tspan
						x="5.26" dy="1.2em" class="st3">Remote</tspan></text>		</g>
		<g id="shape156-227" v:mID="156" v:groupContext="shape" transform="translate(179.364,-53.3996)">
			<title>Sheet.156</title>
			<desc>1</desc>
			<v:textBlock v:margins="rect(4,4,4,4)" v:tabSpace="42.5197"/>
			<v:textRect cx="8.50394" cy="177.665" width="17.01" height="7.08662"/>
			<rect x="0" y="174.122" width="17.0079" height="7.08662" class="st10"/>
			<text x="6.48" y="180.07" class="st13" v:langID="4105"><v:paragraph v:horizAlign="1"/><v:tabList/>1</text>		</g>
		<g id="shape157-230" v:mID="157" v:groupContext="shape" transform="translate(179.364,-32.1398)">
			<title>Sheet.157</title>
			<desc>1</desc>
			<v:textBlock v:margins="rect(4,4,4,4)" v:tabSpace="42.5197"/>
			<v:textRect cx="8.50394" cy="177.665" width="17.01" height="7.08662"/>
			<rect x="0" y="174.122" width="17.0079" height="7.08662" class="st10"/>
			<text x="6.48" y="180.07" class="st13" v:langID="4105"><v:paragraph v:horizAlign="1"/><v:tabList/>1</text>		</g>
		<g id="shape158-233" v:mID="158" v:groupContext="shape" transform="translate(251.648,-53.3996)">
			<title>Sheet.158</title>
			<desc>1</desc>
			<v:textBlock v:margins="rect(4,4,4,4)" v:tabSpace="42.5197"/>
			<v:textRect cx="8.50394" cy="177.665" width="17.01" height="7.08662"/>
			<rect x="0" y="174.122" width="17.0079" height="7.08662" class="st10"/>
			<text x="6.48" y="180.07" class="st13" v:langID="4105"><v:paragraph v:horizAlign="1"/><v:tabList/>1</text>		</g>
		<g id="shape159-236" v:mID="159" v:groupContext="shape" transform="translate(231.38,-0.25)">
			<title>Rectangle.116</title>
			<desc>BLE Remote</desc>
			<v:userDefs>
				<v:ud v:nameU="visVersion" v:val="VT0(15):26"/>
			</v:userDefs>
			<v:textBlock v:margins="rect(4,4,4,4)" v:tabSpace="42.5197"/>
			<v:textRect cx="21.2598" cy="165.264" width="42.52" height="31.8898"/>
			<rect x="0" y="149.319" width="42.5197" height="31.8898" class="st12"/>
			<text x="14" y="162.26" class="st11" v:langID="4105"><v:paragraph v:horizAlign="1"/><v:tabList/>BLE<v:newlineChar/><tspan
						x="5.26" dy="1.2em" class="st3">Remote</tspan></text>		</g>
		<g id="shape160-240" v:mID="160" v:groupContext="shape" transform="translate(251.648,-32.1398)">
			<title>Sheet.160</title>
			<desc>1</desc>
			<v:textBlock v:margins="rect(4,4,4,4)" v:tabSpace="42.5197"/>
			<v:textRect cx="8.50394" cy="177.665" width="17.01" height="7.08662"/>
			<rect x="0" y="174.122" width="17.0079" height="7.08662" class="st10"/>
			<text x="6.48" y="180.07" class="st13" v:langID="4105"><v:paragraph v:horizAlign="1"/><v:tabList/>1</text>		</g>
	</g>
</svg>
